name Walk10.mot
datacolumns 19
datarows 22
range 1.97800000 1.99900000
endheader

                time	   L_ground_force_vx	   L_ground_force_vy	   L_ground_force_vz	   L_ground_force_px	   L_ground_force_py	   L_ground_force_pz	   R_ground_force_vx	   R_ground_force_vy	   R_ground_force_vz	   R_ground_force_px	   R_ground_force_py	   R_ground_force_pz	   L_ground_torque_x	   L_ground_torque_y	   L_ground_torque_z	   R_ground_torque_x	   R_ground_torque_y	   R_ground_torque_z	
          1.97800000	        -39.36973148	        868.67640202	        -59.77279446	          0.49065807	          0.00000000	          0.14923055	          0.00000000	          0.00000000	          0.00000000	          0.00000000	          0.00000000	          0.00000000	          0.00000000	          5.89774952	          0.00000000	          0.00000000	          0.00000000	          0.00000000	
          1.97900000	        -39.01863857	        866.77323773	        -59.52083022	          0.49090231	          0.00000000	          0.14933509	          0.00000000	          0.00000000	          0.00000000	          0.00000000	          0.00000000	          0.00000000	          0.00000000	          5.84548491	          0.00000000	          0.00000000	          0.00000000	          0.00000000	
          1.98000000	        -38.68053806	        864.89806482	        -59.28267126	          0.49111710	          0.00000000	          0.14939850	          0.00000000	          0.00000000	          0.00000000	          0.00000000	          0.00000000	          0.00000000	          0.00000000	          5.78725386	          0.00000000	          0.00000000	          0.00000000	          0.00000000	
          1.98100000	        -38.32939697	        863.03016956	        -59.06123826	          0.49134833	          0.00000000	          0.14943248	          0.00000000	          0.00000000	          0.00000000	          0.00000000	          0.00000000	          0.00000000	          0.00000000	          5.72433256	          0.00000000	          0.00000000	          0.00000000	          0.00000000	
          1.98200000	        -37.95205255	        861.15648825	        -58.84824607	          0.49162259	          0.00000000	          0.14946754	          0.00000000	          0.00000000	          0.00000000	          0.00000000	          0.00000000	          0.00000000	          0.00000000	          5.65673107	          0.00000000	          0.00000000	          0.00000000	          0.00000000	
          1.98300000	        -37.55736993	        859.29194507	        -58.62193856	          0.49192983	          0.00000000	          0.14953700	          0.00000000	          0.00000000	          0.00000000	          0.00000000	          0.00000000	          0.00000000	          0.00000000	          5.58778117	          0.00000000	          0.00000000	          0.00000000	          0.00000000	
          1.98400000	        -37.15791351	        857.44518304	        -58.36143381	          0.49225593	          0.00000000	          0.14965210	          0.00000000	          0.00000000	          0.00000000	          0.00000000	          0.00000000	          0.00000000	          0.00000000	          5.52211431	          0.00000000	          0.00000000	          0.00000000	          0.00000000	
          1.98500000	        -36.75617833	        855.57713775	        -58.06059819	          0.49260674	          0.00000000	          0.14978527	          0.00000000	          0.00000000	          0.00000000	          0.00000000	          0.00000000	          0.00000000	          0.00000000	          5.45811483	          0.00000000	          0.00000000	          0.00000000	          0.00000000	
          1.98600000	        -36.35129006	        853.65915644	        -57.72928319	          0.49298353	          0.00000000	          0.14989239	          0.00000000	          0.00000000	          0.00000000	          0.00000000	          0.00000000	          0.00000000	          0.00000000	          5.39014609	          0.00000000	          0.00000000	          0.00000000	          0.00000000	
          1.98700000	        -35.94823214	        851.72610713	        -57.38929613	          0.49336920	          0.00000000	          0.14995446	          0.00000000	          0.00000000	          0.00000000	          0.00000000	          0.00000000	          0.00000000	          0.00000000	          5.31572894	          0.00000000	          0.00000000	          0.00000000	          0.00000000	
          1.98800000	        -35.55522925	        849.81853348	        -57.06509416	          0.49375136	          0.00000000	          0.14998440	          0.00000000	          0.00000000	          0.00000000	          0.00000000	          0.00000000	          0.00000000	          0.00000000	          5.23527302	          0.00000000	          0.00000000	          0.00000000	          0.00000000	
          1.98900000	        -35.17640872	        847.93829801	        -56.76891847	          0.49413193	          0.00000000	          0.15000807	          0.00000000	          0.00000000	          0.00000000	          0.00000000	          0.00000000	          0.00000000	          0.00000000	          5.15139339	          0.00000000	          0.00000000	          0.00000000	          0.00000000	
          1.99000000	        -34.81219092	        846.08941754	        -56.49427686	          0.49450887	          0.00000000	          0.15005165	          0.00000000	          0.00000000	          0.00000000	          0.00000000	          0.00000000	          0.00000000	          0.00000000	          5.07156584	          0.00000000	          0.00000000	          0.00000000	          0.00000000	
          1.99100000	        -34.46390383	        844.30691449	        -56.22578850	          0.49486507	          0.00000000	          0.15012903	          0.00000000	          0.00000000	          0.00000000	          0.00000000	          0.00000000	          0.00000000	          0.00000000	          5.00226769	          0.00000000	          0.00000000	          0.00000000	          0.00000000	
          1.99200000	        -34.13665631	        842.62337347	        -55.95241326	          0.49517808	          0.00000000	          0.15023695	          0.00000000	          0.00000000	          0.00000000	          0.00000000	          0.00000000	          0.00000000	          0.00000000	          4.94061843	          0.00000000	          0.00000000	          0.00000000	          0.00000000	
          1.99300000	        -33.83541195	        841.03794888	        -55.67144314	          0.49544407	          0.00000000	          0.15037009	          0.00000000	          0.00000000	          0.00000000	          0.00000000	          0.00000000	          0.00000000	          0.00000000	          4.87945215	          0.00000000	          0.00000000	          0.00000000	          0.00000000	
          1.99400000	        -33.55096645	        839.52315595	        -55.38485103	          0.49569356	          0.00000000	          0.15052335	          0.00000000	          0.00000000	          0.00000000	          0.00000000	          0.00000000	          0.00000000	          0.00000000	          4.81640473	          0.00000000	          0.00000000	          0.00000000	          0.00000000	
          1.99500000	        -33.25812811	        838.04111084	        -55.09610901	          0.49596395	          0.00000000	          0.15067763	          0.00000000	          0.00000000	          0.00000000	          0.00000000	          0.00000000	          0.00000000	          0.00000000	          4.75485144	          0.00000000	          0.00000000	          0.00000000	          0.00000000	
          1.99600000	        -32.93656898	        836.56304484	        -54.81243660	          0.49625506	          0.00000000	          0.15080634	          0.00000000	          0.00000000	          0.00000000	          0.00000000	          0.00000000	          0.00000000	          0.00000000	          4.69988387	          0.00000000	          0.00000000	          0.00000000	          0.00000000	
          1.99700000	        -32.58495743	        835.08310497	        -54.54298454	          0.49653435	          0.00000000	          0.15089366	          0.00000000	          0.00000000	          0.00000000	          0.00000000	          0.00000000	          0.00000000	          0.00000000	          4.65337778	          0.00000000	          0.00000000	          0.00000000	          0.00000000	
          1.99800000	        -32.21608544	        833.61461560	        -54.29001231	          0.49678197	          0.00000000	          0.15094003	          0.00000000	          0.00000000	          0.00000000	          0.00000000	          0.00000000	          0.00000000	          0.00000000	          4.61219875	          0.00000000	          0.00000000	          0.00000000	          0.00000000	
          1.99900000	        -31.84690984	        832.18498344	        -54.04684916	          0.49701093	          0.00000000	          0.15096087	          0.00000000	          0.00000000	          0.00000000	          0.00000000	          0.00000000	          0.00000000	          0.00000000	          4.57099799	          0.00000000	          0.00000000	          0.00000000	          0.00000000	
